# xmcd
#
# Track frame offsets: 
#        150
#        9782
#        20257
#        30994
#        40041
#        52693
#        65075
#        75315
#        84780
#        96187
#        106801
#        114882
#
# Disc length: 1675 seconds
#
# Revision: 0
# Processed by: cddbd v1.5.2PL0 Copyright (c) Steve Scherf et al.
# Submitted via: ExactAudioCopyFreeDBPlugin 1.0
#
DISCID=6c06890c
DTITLE=Ventures - The Ventures Play The Country Classics
DYEAR=1963
DGENRE=
TTITLE0=Panhandle Rag
TTITLE1=San Antonio Rose
TTITLE2=I Walk The Line
TTITLE3=Wildwood Flower
TTITLE4=I Can't Stop Loving You
TTITLE5=Wabash Cannonball
TTITLE6=Lovesick Blues
TTITLE7=Steel Guitar Rag
TTITLE8=Oh, Lonesome Me
TTITLE9=Born To Lose
TTITLE10=Sugarfoot Rag
TTITLE11=You Are My Sunshine
EXTD=
EXTT0=
EXTT1=
EXTT2=
EXTT3=
EXTT4=
EXTT5=
EXTT6=
EXTT7=
EXTT8=
EXTT9=
EXTT10=
EXTT11=
PLAYORDER=
